<svg width="150" height="75" viewBox="0 0 214 96" fill="none" xmlns="http://www.w3.org/2000/svg">
<path d="M10.63 79.508C10.69 79.436 10.762 79.4 10.846 79.4H12.214C12.334 79.4 12.394 79.46 12.394 79.58V91.82C12.394 91.94 12.334 92 12.214 92H10.846C10.726 92 10.666 91.94 10.666 91.82V82.604C10.666 82.568 10.654 82.544 10.63 82.532C10.606 82.52 10.588 82.532 10.576 82.568L8.002 86.492C7.954 86.564 7.882 86.6 7.786 86.6H7.102C7.018 86.6 6.946 86.564 6.886 86.492L4.294 82.604C4.282 82.568 4.264 82.556 4.24 82.568C4.216 82.58 4.204 82.604 4.204 82.64V91.82C4.204 91.94 4.144 92 4.024 92H2.656C2.536 92 2.476 91.94 2.476 91.82V79.58C2.476 79.46 2.536 79.4 2.656 79.4H4.024C4.12 79.4 4.192 79.436 4.24 79.508L7.39 84.224C7.402 84.236 7.42 84.242 7.444 84.242C7.468 84.242 7.486 84.236 7.498 84.224L10.63 79.508ZM18.8712 92.144C17.9832 92.144 17.2092 91.922 16.5492 91.478C15.8892 91.022 15.4272 90.392 15.1632 89.588C14.9472 88.94 14.8392 88.208 14.8392 87.392C14.8392 86.54 14.9412 85.82 15.1452 85.232C15.4092 84.44 15.8712 83.822 16.5312 83.378C17.1912 82.922 17.9772 82.694 18.8892 82.694C19.7532 82.694 20.5032 82.922 21.1392 83.378C21.7872 83.822 22.2492 84.434 22.5252 85.214C22.7412 85.826 22.8492 86.546 22.8492 87.374C22.8492 88.214 22.7412 88.952 22.5252 89.588C22.2612 90.392 21.8052 91.022 21.1572 91.478C20.5092 91.922 19.7472 92.144 18.8712 92.144ZM18.8712 90.65C19.3512 90.65 19.7712 90.518 20.1312 90.254C20.4912 89.978 20.7492 89.594 20.9052 89.102C21.0372 88.646 21.1032 88.082 21.1032 87.41C21.1032 86.738 21.0432 86.18 20.9232 85.736C20.7672 85.244 20.5092 84.866 20.1492 84.602C19.7892 84.326 19.3512 84.188 18.8352 84.188C18.3432 84.188 17.9172 84.326 17.5572 84.602C17.1972 84.866 16.9392 85.244 16.7832 85.736C16.6512 86.156 16.5852 86.714 16.5852 87.41C16.5852 88.106 16.6512 88.67 16.7832 89.102C16.9272 89.594 17.1792 89.978 17.5392 90.254C17.9112 90.518 18.3552 90.65 18.8712 90.65ZM30.7996 79.58C30.7996 79.46 30.8596 79.4 30.9796 79.4H32.3476C32.4676 79.4 32.5276 79.46 32.5276 79.58V91.82C32.5276 91.94 32.4676 92 32.3476 92H30.9796C30.8596 92 30.7996 91.94 30.7996 91.82V91.226C30.7996 91.202 30.7876 91.184 30.7636 91.172C30.7516 91.16 30.7336 91.166 30.7096 91.19C30.4456 91.49 30.1336 91.724 29.7736 91.892C29.4136 92.06 29.0236 92.144 28.6036 92.144C27.7396 92.144 27.0196 91.934 26.4436 91.514C25.8796 91.082 25.4656 90.476 25.2016 89.696C24.9736 89.06 24.8596 88.292 24.8596 87.392C24.8596 86.552 24.9556 85.826 25.1476 85.214C25.3996 84.422 25.8136 83.804 26.3896 83.36C26.9656 82.916 27.7036 82.694 28.6036 82.694C29.0116 82.694 29.3956 82.778 29.7556 82.946C30.1276 83.102 30.4456 83.33 30.7096 83.63C30.7336 83.654 30.7516 83.66 30.7636 83.648C30.7876 83.636 30.7996 83.618 30.7996 83.594V79.58ZM30.3496 89.678C30.6256 89.174 30.7636 88.418 30.7636 87.41C30.7636 86.402 30.6136 85.634 30.3136 85.106C29.9656 84.494 29.4556 84.188 28.7836 84.188C28.0636 84.188 27.5296 84.476 27.1816 85.052C26.7976 85.652 26.6056 86.444 26.6056 87.428C26.6056 88.352 26.7556 89.096 27.0556 89.66C27.4036 90.32 27.9736 90.65 28.7656 90.65C29.4616 90.65 29.9896 90.326 30.3496 89.678ZM42.4768 86.276C42.5248 86.768 42.5428 87.32 42.5308 87.932C42.5308 88.052 42.4708 88.112 42.3508 88.112H36.6088C36.5608 88.112 36.5368 88.136 36.5368 88.184C36.5368 88.592 36.5728 88.904 36.6448 89.12C36.7768 89.6 37.0408 89.978 37.4368 90.254C37.8448 90.518 38.3548 90.65 38.9668 90.65C39.8548 90.65 40.5388 90.284 41.0188 89.552C41.0788 89.432 41.1568 89.414 41.2528 89.498L42.2788 90.182C42.3628 90.254 42.3808 90.332 42.3328 90.416C41.9968 90.956 41.5168 91.382 40.8928 91.694C40.2808 92.006 39.5848 92.162 38.8048 92.162C37.9288 92.162 37.1908 91.97 36.5908 91.586C35.9908 91.202 35.5408 90.656 35.2408 89.948C34.9528 89.24 34.8088 88.382 34.8088 87.374C34.8088 86.498 34.8748 85.832 35.0068 85.376C35.2228 84.548 35.6548 83.894 36.3028 83.414C36.9508 82.934 37.7368 82.694 38.6608 82.694C39.8728 82.694 40.7788 83 41.3788 83.612C41.9788 84.212 42.3448 85.1 42.4768 86.276ZM38.6608 84.188C38.1448 84.188 37.7188 84.32 37.3828 84.584C37.0468 84.836 36.8188 85.178 36.6988 85.61C36.6148 85.874 36.5608 86.21 36.5368 86.618C36.5368 86.666 36.5608 86.69 36.6088 86.69H40.7308C40.7788 86.69 40.8028 86.666 40.8028 86.618C40.7788 86.222 40.7428 85.928 40.6948 85.736C40.5748 85.268 40.3348 84.896 39.9748 84.62C39.6268 84.332 39.1888 84.188 38.6608 84.188ZM48.7252 82.748C49.1092 82.748 49.4572 82.826 49.7692 82.982C49.8532 83.018 49.8832 83.09 49.8592 83.198L49.5712 84.548C49.5592 84.656 49.4872 84.692 49.3552 84.656C49.1512 84.572 48.9112 84.53 48.6352 84.53L48.3832 84.548C47.8192 84.572 47.3512 84.77 46.9792 85.142C46.6192 85.502 46.4392 85.976 46.4392 86.564V91.82C46.4392 91.94 46.3792 92 46.2592 92H44.8912C44.7712 92 44.7112 91.94 44.7112 91.82V83.018C44.7112 82.898 44.7712 82.838 44.8912 82.838H46.2592C46.3792 82.838 46.4392 82.898 46.4392 83.018V83.972C46.4392 84.008 46.4452 84.032 46.4572 84.044C46.4812 84.044 46.4992 84.032 46.5112 84.008C47.0512 83.168 47.7892 82.748 48.7252 82.748ZM55.4769 82.712C56.4609 82.712 57.2409 83 57.8169 83.576C58.3929 84.14 58.6809 84.908 58.6809 85.88V91.82C58.6809 91.94 58.6209 92 58.5009 92H57.1329C57.0129 92 56.9529 91.94 56.9529 91.82V86.222C56.9529 85.622 56.7789 85.136 56.4309 84.764C56.0829 84.392 55.6209 84.206 55.0449 84.206C54.4809 84.206 54.0189 84.392 53.6589 84.764C53.2989 85.136 53.1189 85.616 53.1189 86.204V91.82C53.1189 91.94 53.0589 92 52.9389 92H51.5709C51.4509 92 51.3909 91.94 51.3909 91.82V83.018C51.3909 82.898 51.4509 82.838 51.5709 82.838H52.9389C53.0589 82.838 53.1189 82.898 53.1189 83.018V83.666C53.1189 83.69 53.1249 83.708 53.1369 83.72C53.1609 83.732 53.1789 83.726 53.1909 83.702C53.7069 83.042 54.4689 82.712 55.4769 82.712ZM72.6162 92C72.5082 92 72.4362 91.952 72.4002 91.856L71.7522 89.75C71.7402 89.714 71.7162 89.696 71.6802 89.696H66.6222C66.5862 89.696 66.5622 89.714 66.5502 89.75L65.9022 91.856C65.8662 91.952 65.7942 92 65.6862 92H64.2282C64.0962 92 64.0482 91.934 64.0842 91.802L68.0262 79.544C68.0622 79.448 68.1342 79.4 68.2422 79.4H70.0422C70.1502 79.4 70.2222 79.448 70.2582 79.544L74.2362 91.802L74.2542 91.874C74.2542 91.958 74.2002 92 74.0922 92H72.6162ZM67.0002 88.238C66.9882 88.262 66.9882 88.286 67.0002 88.31C67.0242 88.322 67.0482 88.328 67.0722 88.328H71.2122C71.2362 88.328 71.2542 88.322 71.2662 88.31C71.2902 88.286 71.2962 88.262 71.2842 88.238L69.1962 81.56C69.1842 81.536 69.1662 81.524 69.1422 81.524C69.1182 81.524 69.1002 81.536 69.0882 81.56L67.0002 88.238ZM81.53 79.58C81.53 79.46 81.59 79.4 81.71 79.4H83.078C83.198 79.4 83.258 79.46 83.258 79.58V91.82C83.258 91.94 83.198 92 83.078 92H81.71C81.59 92 81.53 91.94 81.53 91.82V91.226C81.53 91.202 81.518 91.184 81.494 91.172C81.482 91.16 81.464 91.166 81.44 91.19C81.176 91.49 80.864 91.724 80.504 91.892C80.144 92.06 79.754 92.144 79.334 92.144C78.47 92.144 77.75 91.934 77.174 91.514C76.61 91.082 76.196 90.476 75.932 89.696C75.704 89.06 75.59 88.292 75.59 87.392C75.59 86.552 75.686 85.826 75.878 85.214C76.13 84.422 76.544 83.804 77.12 83.36C77.696 82.916 78.434 82.694 79.334 82.694C79.742 82.694 80.126 82.778 80.486 82.946C80.858 83.102 81.176 83.33 81.44 83.63C81.464 83.654 81.482 83.66 81.494 83.648C81.518 83.636 81.53 83.618 81.53 83.594V79.58ZM81.08 89.678C81.356 89.174 81.494 88.418 81.494 87.41C81.494 86.402 81.344 85.634 81.044 85.106C80.696 84.494 80.186 84.188 79.514 84.188C78.794 84.188 78.26 84.476 77.912 85.052C77.528 85.652 77.336 86.444 77.336 87.428C77.336 88.352 77.486 89.096 77.786 89.66C78.134 90.32 78.704 90.65 79.496 90.65C80.192 90.65 80.72 90.326 81.08 89.678ZM95.3133 82.712C96.2253 82.712 96.9453 82.988 97.4733 83.54C98.0013 84.08 98.2653 84.836 98.2653 85.808V91.82C98.2653 91.94 98.2053 92 98.0853 92H96.7353C96.6153 92 96.5553 91.94 96.5553 91.82V86.168C96.5553 85.568 96.3873 85.094 96.0513 84.746C95.7273 84.386 95.2893 84.206 94.7373 84.206C94.1853 84.206 93.7353 84.38 93.3873 84.728C93.0393 85.076 92.8653 85.544 92.8653 86.132V91.82C92.8653 91.94 92.8053 92 92.6853 92H91.3353C91.2153 92 91.1553 91.94 91.1553 91.82V86.168C91.1553 85.568 90.9873 85.094 90.6513 84.746C90.3273 84.386 89.8893 84.206 89.3373 84.206C88.7853 84.206 88.3413 84.38 88.0053 84.728C87.6813 85.076 87.5193 85.544 87.5193 86.132V91.82C87.5193 91.94 87.4593 92 87.3393 92H85.9713C85.8513 92 85.7913 91.94 85.7913 91.82V83.018C85.7913 82.898 85.8513 82.838 85.9713 82.838H87.3393C87.4593 82.838 87.5193 82.898 87.5193 83.018V83.63C87.5193 83.654 87.5253 83.672 87.5373 83.684C87.5613 83.696 87.5853 83.69 87.6093 83.666C88.1373 83.03 88.9053 82.712 89.9133 82.712C90.5253 82.712 91.0473 82.832 91.4793 83.072C91.9113 83.3 92.2473 83.642 92.4873 84.098C92.5233 84.146 92.5593 84.146 92.5953 84.098C92.8833 83.63 93.2613 83.282 93.7293 83.054C94.2093 82.826 94.7373 82.712 95.3133 82.712ZM101.706 81.398C101.37 81.398 101.094 81.29 100.878 81.074C100.662 80.858 100.554 80.582 100.554 80.246C100.554 79.91 100.662 79.634 100.878 79.418C101.094 79.202 101.37 79.094 101.706 79.094C102.042 79.094 102.318 79.202 102.534 79.418C102.75 79.634 102.858 79.91 102.858 80.246C102.858 80.582 102.75 80.858 102.534 81.074C102.318 81.29 102.042 81.398 101.706 81.398ZM100.986 91.982C100.866 91.982 100.806 91.922 100.806 91.802V83.018C100.806 82.898 100.866 82.838 100.986 82.838H102.354C102.474 82.838 102.534 82.898 102.534 83.018V91.802C102.534 91.922 102.474 91.982 102.354 91.982H100.986ZM109.336 82.712C110.32 82.712 111.1 83 111.676 83.576C112.252 84.14 112.54 84.908 112.54 85.88V91.82C112.54 91.94 112.48 92 112.36 92H110.992C110.872 92 110.812 91.94 110.812 91.82V86.222C110.812 85.622 110.638 85.136 110.29 84.764C109.942 84.392 109.48 84.206 108.904 84.206C108.34 84.206 107.878 84.392 107.518 84.764C107.158 85.136 106.978 85.616 106.978 86.204V91.82C106.978 91.94 106.918 92 106.798 92H105.43C105.31 92 105.25 91.94 105.25 91.82V83.018C105.25 82.898 105.31 82.838 105.43 82.838H106.798C106.918 82.838 106.978 82.898 106.978 83.018V83.666C106.978 83.69 106.984 83.708 106.996 83.72C107.02 83.732 107.038 83.726 107.05 83.702C107.566 83.042 108.328 82.712 109.336 82.712ZM119.006 92C118.886 92 118.826 91.94 118.826 91.82V79.58C118.826 79.46 118.886 79.4 119.006 79.4H123.362C124.61 79.4 125.606 79.73 126.35 80.39C127.094 81.038 127.466 81.908 127.466 83V88.4C127.466 89.492 127.094 90.368 126.35 91.028C125.606 91.676 124.61 92 123.362 92H119.006ZM120.554 90.434C120.554 90.482 120.578 90.506 120.626 90.506H123.434C124.13 90.506 124.682 90.296 125.09 89.876C125.51 89.444 125.726 88.868 125.738 88.148V83.252C125.738 82.532 125.528 81.962 125.108 81.542C124.7 81.11 124.142 80.894 123.434 80.894H120.626C120.578 80.894 120.554 80.918 120.554 80.966V90.434ZM132.997 82.694C133.729 82.694 134.365 82.826 134.905 83.09C135.457 83.342 135.877 83.702 136.165 84.17C136.465 84.626 136.615 85.148 136.615 85.736V91.82C136.615 91.94 136.555 92 136.435 92H135.067C134.947 92 134.887 91.94 134.887 91.82V91.172C134.887 91.112 134.857 91.1 134.797 91.136C134.485 91.46 134.101 91.712 133.645 91.892C133.201 92.06 132.703 92.144 132.151 92.144C131.263 92.144 130.525 91.922 129.937 91.478C129.361 91.022 129.073 90.338 129.073 89.426C129.073 88.49 129.397 87.758 130.045 87.23C130.705 86.69 131.623 86.42 132.799 86.42H134.815C134.863 86.42 134.887 86.396 134.887 86.348V85.862C134.887 85.334 134.731 84.926 134.419 84.638C134.119 84.338 133.657 84.188 133.033 84.188C132.529 84.188 132.115 84.29 131.791 84.494C131.479 84.686 131.287 84.95 131.215 85.286C131.179 85.406 131.107 85.46 130.999 85.448L129.541 85.25C129.421 85.226 129.367 85.178 129.379 85.106C129.475 84.398 129.853 83.822 130.513 83.378C131.173 82.922 132.001 82.694 132.997 82.694ZM132.529 90.686C133.165 90.686 133.717 90.518 134.185 90.182C134.653 89.846 134.887 89.42 134.887 88.904V87.842C134.887 87.794 134.863 87.77 134.815 87.77H133.123C132.415 87.77 131.851 87.908 131.431 88.184C131.011 88.46 130.801 88.844 130.801 89.336C130.801 89.78 130.957 90.116 131.269 90.344C131.593 90.572 132.013 90.686 132.529 90.686ZM142.17 92.108C141.45 92.108 140.814 92 140.262 91.784C139.722 91.568 139.302 91.274 139.002 90.902C138.702 90.518 138.552 90.098 138.552 89.642V89.444C138.552 89.324 138.612 89.264 138.732 89.264H140.028C140.148 89.264 140.208 89.324 140.208 89.444V89.534C140.208 89.87 140.388 90.164 140.748 90.416C141.12 90.668 141.588 90.794 142.152 90.794C142.692 90.794 143.13 90.68 143.466 90.452C143.802 90.212 143.97 89.912 143.97 89.552C143.97 89.204 143.814 88.946 143.502 88.778C143.19 88.598 142.686 88.412 141.99 88.22C141.306 88.028 140.73 87.836 140.262 87.644C139.806 87.44 139.416 87.158 139.092 86.798C138.78 86.426 138.624 85.952 138.624 85.376C138.624 84.572 138.936 83.936 139.56 83.468C140.196 82.988 141.036 82.748 142.08 82.748C142.776 82.748 143.388 82.862 143.916 83.09C144.456 83.306 144.87 83.612 145.158 84.008C145.446 84.404 145.59 84.848 145.59 85.34V85.394C145.59 85.514 145.53 85.574 145.41 85.574H144.15C144.03 85.574 143.97 85.514 143.97 85.394V85.34C143.97 84.992 143.796 84.704 143.448 84.476C143.112 84.236 142.65 84.116 142.062 84.116C141.534 84.116 141.102 84.218 140.766 84.422C140.442 84.626 140.28 84.902 140.28 85.25C140.28 85.598 140.436 85.862 140.748 86.042C141.072 86.222 141.588 86.414 142.296 86.618C142.992 86.81 143.568 87.002 144.024 87.194C144.492 87.374 144.888 87.65 145.212 88.022C145.536 88.382 145.698 88.856 145.698 89.444C145.698 90.26 145.374 90.908 144.726 91.388C144.09 91.868 143.238 92.108 142.17 92.108ZM151.805 82.712C152.789 82.712 153.569 83 154.145 83.576C154.721 84.14 155.009 84.908 155.009 85.88V91.82C155.009 91.94 154.949 92 154.829 92H153.461C153.341 92 153.281 91.94 153.281 91.82V86.222C153.281 85.622 153.107 85.136 152.759 84.764C152.411 84.392 151.949 84.206 151.373 84.206C150.809 84.206 150.347 84.392 149.987 84.764C149.627 85.136 149.447 85.616 149.447 86.204V91.82C149.447 91.94 149.387 92 149.267 92H147.899C147.779 92 147.719 91.94 147.719 91.82V79.58C147.719 79.46 147.779 79.4 147.899 79.4H149.267C149.387 79.4 149.447 79.46 149.447 79.58V83.666C149.447 83.69 149.453 83.708 149.465 83.72C149.489 83.732 149.507 83.726 149.519 83.702C150.035 83.042 150.797 82.712 151.805 82.712ZM164.855 85.214C165.047 85.826 165.143 86.552 165.143 87.392C165.143 88.292 165.029 89.06 164.801 89.696C164.537 90.476 164.117 91.082 163.541 91.514C162.977 91.934 162.263 92.144 161.399 92.144C160.979 92.144 160.589 92.06 160.229 91.892C159.869 91.724 159.557 91.49 159.293 91.19C159.269 91.166 159.245 91.16 159.221 91.172C159.209 91.184 159.203 91.202 159.203 91.226V91.82C159.203 91.94 159.143 92 159.023 92H157.655C157.535 92 157.475 91.94 157.475 91.82V79.58C157.475 79.46 157.535 79.4 157.655 79.4H159.023C159.143 79.4 159.203 79.46 159.203 79.58V83.594C159.203 83.618 159.209 83.636 159.221 83.648C159.245 83.66 159.269 83.654 159.293 83.63C159.557 83.33 159.869 83.102 160.229 82.946C160.601 82.778 160.991 82.694 161.399 82.694C162.299 82.694 163.037 82.916 163.613 83.36C164.189 83.804 164.603 84.422 164.855 85.214ZM162.947 89.66C163.247 89.096 163.397 88.352 163.397 87.428C163.397 86.444 163.205 85.652 162.821 85.052C162.473 84.476 161.939 84.188 161.219 84.188C160.547 84.188 160.037 84.494 159.689 85.106C159.377 85.658 159.221 86.426 159.221 87.41C159.221 88.394 159.365 89.15 159.653 89.678C160.013 90.326 160.541 90.65 161.237 90.65C162.029 90.65 162.599 90.32 162.947 89.66ZM171.045 92.144C170.157 92.144 169.383 91.922 168.723 91.478C168.063 91.022 167.601 90.392 167.337 89.588C167.121 88.94 167.013 88.208 167.013 87.392C167.013 86.54 167.115 85.82 167.319 85.232C167.583 84.44 168.045 83.822 168.705 83.378C169.365 82.922 170.151 82.694 171.063 82.694C171.927 82.694 172.677 82.922 173.313 83.378C173.961 83.822 174.423 84.434 174.699 85.214C174.915 85.826 175.023 86.546 175.023 87.374C175.023 88.214 174.915 88.952 174.699 89.588C174.435 90.392 173.979 91.022 173.331 91.478C172.683 91.922 171.921 92.144 171.045 92.144ZM171.045 90.65C171.525 90.65 171.945 90.518 172.305 90.254C172.665 89.978 172.923 89.594 173.079 89.102C173.211 88.646 173.277 88.082 173.277 87.41C173.277 86.738 173.217 86.18 173.097 85.736C172.941 85.244 172.683 84.866 172.323 84.602C171.963 84.326 171.525 84.188 171.009 84.188C170.517 84.188 170.091 84.326 169.731 84.602C169.371 84.866 169.113 85.244 168.957 85.736C168.825 86.156 168.759 86.714 168.759 87.41C168.759 88.106 168.825 88.67 168.957 89.102C169.101 89.594 169.353 89.978 169.713 90.254C170.085 90.518 170.529 90.65 171.045 90.65ZM180.633 82.694C181.365 82.694 182.001 82.826 182.541 83.09C183.093 83.342 183.513 83.702 183.801 84.17C184.101 84.626 184.251 85.148 184.251 85.736V91.82C184.251 91.94 184.191 92 184.071 92H182.703C182.583 92 182.523 91.94 182.523 91.82V91.172C182.523 91.112 182.493 91.1 182.433 91.136C182.121 91.46 181.737 91.712 181.281 91.892C180.837 92.06 180.339 92.144 179.787 92.144C178.899 92.144 178.161 91.922 177.573 91.478C176.997 91.022 176.709 90.338 176.709 89.426C176.709 88.49 177.033 87.758 177.681 87.23C178.341 86.69 179.259 86.42 180.435 86.42H182.451C182.499 86.42 182.523 86.396 182.523 86.348V85.862C182.523 85.334 182.367 84.926 182.055 84.638C181.755 84.338 181.293 84.188 180.669 84.188C180.165 84.188 179.751 84.29 179.427 84.494C179.115 84.686 178.923 84.95 178.851 85.286C178.815 85.406 178.743 85.46 178.635 85.448L177.177 85.25C177.057 85.226 177.003 85.178 177.015 85.106C177.111 84.398 177.489 83.822 178.149 83.378C178.809 82.922 179.637 82.694 180.633 82.694ZM180.165 90.686C180.801 90.686 181.353 90.518 181.821 90.182C182.289 89.846 182.523 89.42 182.523 88.904V87.842C182.523 87.794 182.499 87.77 182.451 87.77H180.759C180.051 87.77 179.487 87.908 179.067 88.184C178.647 88.46 178.437 88.844 178.437 89.336C178.437 89.78 178.593 90.116 178.905 90.344C179.229 90.572 179.649 90.686 180.165 90.686ZM190.598 82.748C190.982 82.748 191.33 82.826 191.642 82.982C191.726 83.018 191.756 83.09 191.732 83.198L191.444 84.548C191.432 84.656 191.36 84.692 191.228 84.656C191.024 84.572 190.784 84.53 190.508 84.53L190.256 84.548C189.692 84.572 189.224 84.77 188.852 85.142C188.492 85.502 188.312 85.976 188.312 86.564V91.82C188.312 91.94 188.252 92 188.132 92H186.764C186.644 92 186.584 91.94 186.584 91.82V83.018C186.584 82.898 186.644 82.838 186.764 82.838H188.132C188.252 82.838 188.312 82.898 188.312 83.018V83.972C188.312 84.008 188.318 84.032 188.33 84.044C188.354 84.044 188.372 84.032 188.384 84.008C188.924 83.168 189.662 82.748 190.598 82.748ZM198.811 79.58C198.811 79.46 198.871 79.4 198.991 79.4H200.359C200.479 79.4 200.539 79.46 200.539 79.58V91.82C200.539 91.94 200.479 92 200.359 92H198.991C198.871 92 198.811 91.94 198.811 91.82V91.226C198.811 91.202 198.799 91.184 198.775 91.172C198.763 91.16 198.745 91.166 198.721 91.19C198.457 91.49 198.145 91.724 197.785 91.892C197.425 92.06 197.035 92.144 196.615 92.144C195.751 92.144 195.031 91.934 194.455 91.514C193.891 91.082 193.477 90.476 193.213 89.696C192.985 89.06 192.871 88.292 192.871 87.392C192.871 86.552 192.967 85.826 193.159 85.214C193.411 84.422 193.825 83.804 194.401 83.36C194.977 82.916 195.715 82.694 196.615 82.694C197.023 82.694 197.407 82.778 197.767 82.946C198.139 83.102 198.457 83.33 198.721 83.63C198.745 83.654 198.763 83.66 198.775 83.648C198.799 83.636 198.811 83.618 198.811 83.594V79.58ZM198.361 89.678C198.637 89.174 198.775 88.418 198.775 87.41C198.775 86.402 198.625 85.634 198.325 85.106C197.977 84.494 197.467 84.188 196.795 84.188C196.075 84.188 195.541 84.476 195.193 85.052C194.809 85.652 194.617 86.444 194.617 87.428C194.617 88.352 194.767 89.096 195.067 89.66C195.415 90.32 195.985 90.65 196.777 90.65C197.473 90.65 198.001 90.326 198.361 89.678Z" fill="#000"/>
<path d="M15.168 53.336C12.704 53.336 10.496 52.936 8.544 52.136C6.592 51.336 5.024 50.152 3.84 48.584C2.688 47.016 2.08 45.128 2.016 42.92H10.752C10.88 44.168 11.312 45.128 12.048 45.8C12.784 46.44 13.744 46.76 14.928 46.76C16.144 46.76 17.104 46.488 17.808 45.944C18.512 45.368 18.864 44.584 18.864 43.592C18.864 42.76 18.576 42.072 18 41.528C17.456 40.984 16.768 40.536 15.936 40.184C15.136 39.832 13.984 39.432 12.48 38.984C10.304 38.312 8.528 37.64 7.152 36.968C5.776 36.296 4.592 35.304 3.6 33.992C2.608 32.68 2.112 30.968 2.112 28.856C2.112 25.72 3.248 23.272 5.52 21.512C7.792 19.72 10.752 18.824 14.4 18.824C18.112 18.824 21.104 19.72 23.376 21.512C25.648 23.272 26.864 25.736 27.024 28.904H18.144C18.08 27.816 17.68 26.968 16.944 26.36C16.208 25.72 15.264 25.4 14.112 25.4C13.12 25.4 12.32 25.672 11.712 26.216C11.104 26.728 10.8 27.48 10.8 28.472C10.8 29.56 11.312 30.408 12.336 31.016C13.36 31.624 14.96 32.28 17.136 32.984C19.312 33.72 21.072 34.424 22.416 35.096C23.792 35.768 24.976 36.744 25.968 38.024C26.96 39.304 27.456 40.952 27.456 42.968C27.456 44.888 26.96 46.632 25.968 48.2C25.008 49.768 23.6 51.016 21.744 51.944C19.888 52.872 17.696 53.336 15.168 53.336ZM57.7552 39.176C57.7552 39.944 57.7073 40.744 57.6113 41.576H39.0353C39.1633 43.24 39.6913 44.52 40.6193 45.416C41.5793 46.28 42.7473 46.712 44.1233 46.712C46.1713 46.712 47.5953 45.848 48.3953 44.12H57.1313C56.6833 45.88 55.8673 47.464 54.6833 48.872C53.5313 50.28 52.0753 51.384 50.3153 52.184C48.5553 52.984 46.5873 53.384 44.4113 53.384C41.7873 53.384 39.4513 52.824 37.4033 51.704C35.3553 50.584 33.7553 48.984 32.6033 46.904C31.4513 44.824 30.8753 42.392 30.8753 39.608C30.8753 36.824 31.4353 34.392 32.5553 32.312C33.7073 30.232 35.3073 28.632 37.3553 27.512C39.4033 26.392 41.7553 25.832 44.4113 25.832C47.0033 25.832 49.3073 26.376 51.3233 27.464C53.3393 28.552 54.9073 30.104 56.0273 32.12C57.1793 34.136 57.7552 36.488 57.7552 39.176ZM49.3553 37.016C49.3553 35.608 48.8753 34.488 47.9153 33.656C46.9553 32.824 45.7553 32.408 44.3153 32.408C42.9393 32.408 41.7713 32.808 40.8113 33.608C39.8833 34.408 39.3073 35.544 39.0833 37.016H49.3553ZM60.4534 39.56C60.4534 36.808 60.9654 34.392 61.9894 32.312C63.0454 30.232 64.4694 28.632 66.2614 27.512C68.0534 26.392 70.0534 25.832 72.2614 25.832C74.0214 25.832 75.6214 26.2 77.0614 26.936C78.5334 27.672 79.6854 28.664 80.5174 29.912V17.48H88.7254V53H80.5174V49.16C79.7494 50.44 78.6454 51.464 77.2054 52.232C75.7974 53 74.1494 53.384 72.2614 53.384C70.0534 53.384 68.0534 52.824 66.2614 51.704C64.4694 50.552 63.0454 48.936 61.9894 46.856C60.9654 44.744 60.4534 42.312 60.4534 39.56ZM80.5174 39.608C80.5174 37.56 79.9414 35.944 78.7894 34.76C77.6694 33.576 76.2934 32.984 74.6614 32.984C73.0294 32.984 71.6374 33.576 70.4854 34.76C69.3654 35.912 68.8054 37.512 68.8054 39.56C68.8054 41.608 69.3654 43.24 70.4854 44.456C71.6374 45.64 73.0294 46.232 74.6614 46.232C76.2934 46.232 77.6694 45.64 78.7894 44.456C79.9414 43.272 80.5174 41.656 80.5174 39.608ZM93.0315 39.56C93.0315 36.808 93.5435 34.392 94.5675 32.312C95.6235 30.232 97.0475 28.632 98.8395 27.512C100.632 26.392 102.632 25.832 104.84 25.832C106.728 25.832 108.376 26.216 109.784 26.984C111.224 27.752 112.328 28.76 113.096 30.008V26.216H121.304V53H113.096V49.208C112.296 50.456 111.176 51.464 109.736 52.232C108.328 53 106.68 53.384 104.792 53.384C102.616 53.384 100.632 52.824 98.8395 51.704C97.0475 50.552 95.6235 48.936 94.5675 46.856C93.5435 44.744 93.0315 42.312 93.0315 39.56ZM113.096 39.608C113.096 37.56 112.52 35.944 111.368 34.76C110.248 33.576 108.872 32.984 107.24 32.984C105.608 32.984 104.216 33.576 103.064 34.76C101.944 35.912 101.384 37.512 101.384 39.56C101.384 41.608 101.944 43.24 103.064 44.456C104.216 45.64 105.608 46.232 107.24 46.232C108.872 46.232 110.248 45.64 111.368 44.456C112.52 43.272 113.096 41.656 113.096 39.608ZM135.45 30.008C136.25 28.76 137.354 27.752 138.762 26.984C140.17 26.216 141.818 25.832 143.706 25.832C145.914 25.832 147.914 26.392 149.706 27.512C151.498 28.632 152.906 30.232 153.93 32.312C154.986 34.392 155.514 36.808 155.514 39.56C155.514 42.312 154.986 44.744 153.93 46.856C152.906 48.936 151.498 50.552 149.706 51.704C147.914 52.824 145.914 53.384 143.706 53.384C141.85 53.384 140.202 53 138.762 52.232C137.354 51.464 136.25 50.472 135.45 49.256V65.768H127.242V26.216H135.45V30.008ZM147.162 39.56C147.162 37.512 146.586 35.912 145.434 34.76C144.314 33.576 142.922 32.984 141.258 32.984C139.626 32.984 138.234 33.576 137.082 34.76C135.962 35.944 135.402 37.56 135.402 39.608C135.402 41.656 135.962 43.272 137.082 44.456C138.234 45.64 139.626 46.232 141.258 46.232C142.89 46.232 144.282 45.64 145.434 44.456C146.586 43.24 147.162 41.608 147.162 39.56Z" fill="#000"/>
<path d="M163.66 53.384C162.22 53.384 161.036 52.968 160.108 52.136C159.212 51.272 158.764 50.216 158.764 48.968C158.764 47.688 159.212 46.616 160.108 45.752C161.036 44.888 162.22 44.456 163.66 44.456C165.068 44.456 166.22 44.888 167.116 45.752C168.044 46.616 168.508 47.688 168.508 48.968C168.508 50.216 168.044 51.272 167.116 52.136C166.22 52.968 165.068 53.384 163.66 53.384Z" fill="#00B074"/>
</svg>
